<?xml version="1.0" encoding="UTF-8" standalone="no"?>
<!DOCTYPE svg PUBLIC "-//W3C//DTD SVG 1.1//EN" "http://www.w3.org/Graphics/SVG/1.1/DTD/svg11.dtd">
<svg width="100%" height="100%" viewBox="0 0 520 520" version="1.1" xmlns="http://www.w3.org/2000/svg" xmlns:xlink="http://www.w3.org/1999/xlink" xml:space="preserve" xmlns:serif="http://www.serif.com/" style="fill-rule:evenodd;clip-rule:evenodd;stroke-linecap:round;stroke-linejoin:round;stroke-miterlimit:1.5;">
    <g transform="matrix(1.10117,0,0,1.12756,-11.8531,-38.4999)">
        <g id="markdown-mark.svg" transform="matrix(2.16018,0,0,2.16018,258.332,264.731)">
            <g transform="matrix(1,0,0,1,-104,-64)">
                <path d="M155,98L125,65L145,65L145,30L165,30L165,65L185,65L155,98Z" style="fill:rgb(49,120,198);fill-rule:nonzero;"/>
            </g>
        </g>
        <g transform="matrix(1.27468,0,0,1.31939,-76.8589,-40.788)">
            <path d="M430.572,153.933C430.572,142.847 421.032,133.847 409.283,133.847L98.701,133.847C86.951,133.847 77.412,142.847 77.412,153.933L77.412,308.549C77.412,319.635 86.951,328.635 98.701,328.635L409.283,328.635C421.032,328.635 430.572,319.635 430.572,308.549L430.572,153.933Z" style="fill:none;stroke:rgb(49,120,198);stroke-width:16.7px;"/>
        </g>
        <g transform="matrix(0.622031,0,0,0.622031,15.4071,98.8209)">
            <path d="M278.939,319.424L278.939,369.485C287.077,373.657 296.702,376.785 307.814,378.871C318.926,380.957 330.637,382 342.949,382C354.948,382 366.346,380.853 377.145,378.558C387.944,376.264 397.413,372.483 405.551,367.216C413.689,361.95 420.132,355.066 424.879,346.566C429.626,338.066 432,327.559 432,315.044C432,305.97 430.644,298.018 427.931,291.187C425.218,284.356 421.306,278.281 416.193,272.962C411.081,267.643 404.951,262.871 397.804,258.647C390.657,254.423 382.597,250.434 373.624,246.68C367.051,243.968 361.156,241.335 355.939,238.78C350.722,236.224 346.288,233.617 342.636,230.958C338.984,228.298 336.167,225.482 334.185,222.51C332.203,219.537 331.211,216.174 331.211,212.419C331.211,208.978 332.098,205.875 333.872,203.111C335.646,200.347 338.15,197.975 341.384,195.993C344.619,194.012 348.583,192.473 353.278,191.378C357.974,190.283 363.19,189.736 368.929,189.736C373.102,189.736 377.51,190.049 382.153,190.674C386.796,191.3 391.465,192.265 396.161,193.568C400.856,194.872 405.42,196.515 409.855,198.496C414.289,200.478 418.384,202.772 422.14,205.38L422.14,158.604C414.524,155.684 406.203,153.52 397.178,152.112C388.153,150.704 377.797,150 366.112,150C354.217,150 342.949,151.278 332.307,153.833C321.665,156.388 312.301,160.377 304.214,165.8C296.128,171.224 289.738,178.133 285.043,186.529C280.348,194.924 278,204.962 278,216.643C278,231.557 282.304,244.281 290.912,254.815C299.519,265.348 312.587,274.265 330.116,281.566C337.002,284.382 343.419,287.145 349.366,289.857C355.313,292.569 360.452,295.385 364.781,298.305C369.111,301.225 372.528,304.406 375.033,307.848C377.537,311.289 378.789,315.2 378.789,319.581C378.789,322.814 378.006,325.812 376.441,328.576C374.876,331.34 372.502,333.738 369.32,335.772C366.138,337.806 362.173,339.396 357.426,340.543C352.678,341.691 347.123,342.264 340.758,342.264C329.907,342.264 319.161,340.361 308.518,336.554C297.876,332.748 288.016,327.038 278.939,319.424ZM194.78,196.082L259,196.082L259,155L80,155L80,196.082L143.906,196.082L143.906,379L194.78,379L194.78,196.082Z" style="fill:rgb(49,120,198);"/>
        </g>
    </g>
</svg>
